<svg height="512pt" viewBox="0 0 512 512" width="512pt" xmlns="http://www.w3.org/2000/svg"><path d="m416.046875 343.207031c40.117187-31.738281 64.765625-63.039062 65.796875-64.355469 2.125-2.714843 2.125-6.523437 0-9.238281-1.03125-1.316406-25.679688-32.617187-65.796875-64.355469-53.515625-42.332031-109.003906-64.707031-160.472656-64.707031-.636719 0-1.273438.015625-1.910157.023438-.546874-.007813-1.089843-.023438-1.636718-.023438-7.09375 0-14.058594.558594-20.859375 1.628907-44.359375 5.851562-90.917969 27.363281-136.066407 63.078124-40.117187 31.738282-64.769531 63.039063-65.796874 64.355469-2.121094 2.714844-2.121094 6.523438 0 9.238281 1.027343 1.316407 25.679687 32.617188 65.796874 64.355469 45.148438 35.714844 91.707032 57.226563 136.066407 63.078125 6.800781 1.070313 13.765625 1.628906 20.859375 1.628906.613281 0 1.21875-.011718 1.828125-.019531.574219.003907 1.148437.019531 1.71875.019531 51.46875 0 106.957031-22.375 160.472656-64.707031zm-371.117187-68.976562c8.277343-9.769531 29.585937-33.5625 59.476562-57.210938 16.996094-13.441406 33.234375-24.074219 48.546875-32.441406-21.496094 23.730469-34.609375 55.1875-34.609375 89.65625 0 34.417969 13.078125 65.839844 34.523438 89.558594-18.382813-10.0625-34.703126-21.484375-48.183594-32.132813-29.976563-23.671875-51.4375-47.621094-59.753906-57.429687zm334.066406-41.941407c-1.296875-3.929687-5.539063-6.066406-9.46875-4.769531-3.933594 1.300781-6.070313 5.539063-4.773438 9.472657 3.953125 11.976562 5.960938 24.503906 5.960938 37.242187 0 64.765625-52.148438 117.570313-116.65625 118.660156-6.90625-.0625-13.738282-.542969-20.472656-1.410156-56.714844-8.882813-100.242188-58.078125-100.242188-117.25 0-58.925781 43.167969-107.953125 99.539062-117.132813 7.386719-.992187 14.1875-1.445312 20.355469-1.535156 40.746094.40625 77.882813 21.226563 99.53125 55.890625 2.195313 3.511719 6.820313 4.582031 10.335938 2.386719 3.511719-2.195312 4.582031-6.820312 2.386719-10.332031-6.019532-9.636719-13.109376-18.316407-21.050782-25.945313 24.078125 11.539063 45.246094 25.988282 62.023438 39.238282 29.972656 23.667968 51.429687 47.617187 59.75 57.429687-8.320313 9.808594-29.773438 33.757813-59.75 57.425781-22.230469 17.558594-43.164063 30.300782-62.421875 39.460938 25.652343-24.375 41.667969-58.796875 41.667969-96.890625 0-14.335938-2.257813-28.445313-6.714844-41.941407zm0 0"/><path d="m307.804688 243.78125c-2.414063-.492188-4.910157.226562-6.691407 1.929688-3.246093 3.109374-7.5 4.824218-11.988281 4.824218-9.5625 0-17.339844-7.78125-17.339844-17.34375 0-3.902344 1.269532-7.589844 3.675782-10.664062 1.519531-1.941406 1.988281-4.503906 1.25-6.855469-.734376-2.355469-2.578126-4.195313-4.929688-4.925781-6.375-1.984375-13.019531-2.988282-19.753906-2.988282-36.652344 0-66.472656 29.820313-66.472656 66.476563 0 23.863281 12.898437 46.023437 33.667968 57.828125 3.597656 2.042969 8.175782.785156 10.226563-2.816406 2.046875-3.597656.785156-8.175782-2.816407-10.222656-16.085937-9.144532-26.082031-26.308594-26.082031-44.789063 0-28.386719 23.09375-51.480469 51.480469-51.480469 2.128906 0 4.246094.128906 6.34375.390625-1.050781 3.203125-1.585938 6.582031-1.585938 10.046875 0 17.832032 14.507813 32.339844 32.339844 32.339844 4.574219 0 9.019532-.953125 13.101563-2.765625.847656 3.734375 1.277343 7.570313 1.277343 11.46875 0 28.382813-23.09375 51.476563-51.476562 51.476563-4.140625 0-7.5 3.355468-7.5 7.496093 0 4.144531 3.359375 7.5 7.5 7.5 36.652344 0 66.472656-29.820312 66.472656-66.472656 0-9.03125-1.785156-17.792969-5.300781-26.050781-.96875-2.261719-2.984375-3.910156-5.398437-4.402344zm0 0"/><path d="m66.542969 180.808594c-12.800781 10.191406-25.457031 21.3125-37.609375 33.050781-2.980469 2.878906-3.0625 7.625-.183594 10.605469 1.46875 1.523437 3.429688 2.289062 5.394531 2.289062 1.875 0 3.753907-.699218 5.207031-2.105468 11.8125-11.410157 24.105469-22.210938 36.535157-32.105469 3.238281-2.578125 3.773437-7.296875 1.195312-10.539063-2.578125-3.238281-7.296875-3.777344-10.539062-1.195312zm0 0"/><path d="m89.132812 173.015625c2.363282 3.398437 7.035157 4.242187 10.4375 1.878906 53.335938-37.035156 105.820313-55.8125 156-55.8125 40.238282 0 82.308594 12.222657 125.039063 36.332031 30.628906 17.277344 62.113281 41.175782 91.050781 69.101563 1.453125 1.40625 3.332032 2.105469 5.203125 2.105469 1.964844 0 3.925781-.769532 5.398438-2.292969 2.875-2.980469 2.792969-7.726563-.1875-10.601563-30.265625-29.210937-61.921875-53.226562-94.09375-71.375-45.007813-25.394531-89.558594-38.269531-132.410157-38.269531-53.296874 0-108.660156 19.683594-164.554687 58.496094-3.402344 2.363281-4.242187 7.035156-1.882813 10.4375zm0 0"/><path d="m7.5 142.433594c4.140625 0 7.496094-3.359375 7.496094-7.5v-119.9375h119.9375c4.140625 0 7.5-3.355469 7.5-7.496094s-3.359375-7.5-7.5-7.5h-127.433594c-4.140625 0-7.5 3.359375-7.5 7.5v127.433594c0 4.140625 3.359375 7.5 7.5 7.5zm0 0"/><path d="m134.933594 497.003906h-119.9375v-119.9375c0-4.140625-3.355469-7.5-7.496094-7.5s-7.5 3.359375-7.5 7.5v127.433594c0 4.140625 3.359375 7.5 7.5 7.5h127.433594c4.140625 0 7.5-3.359375 7.5-7.5s-3.359375-7.496094-7.5-7.496094zm0 0"/><path d="m503.507812 369.566406c-4.140624 0-7.496093 3.359375-7.496093 7.5v119.9375h-119.9375c-4.140625 0-7.5 3.355469-7.5 7.496094s3.359375 7.5 7.5 7.5h127.433593c4.144532 0 7.5-3.359375 7.5-7.5v-127.433594c0-4.140625-3.355468-7.5-7.5-7.5zm0 0"/><path d="m503.507812 0h-127.433593c-4.140625 0-7.5 3.359375-7.5 7.5s3.359375 7.496094 7.5 7.496094h119.9375v119.9375c0 4.140625 3.355469 7.5 7.496093 7.5 4.144532 0 7.5-3.359375 7.5-7.5v-127.433594c0-4.140625-3.355468-7.5-7.5-7.5zm0 0"/></svg>