<?xml version="1.0" encoding="iso-8859-1"?>
<!-- Generator: Adobe Illustrator 19.0.0, SVG Export Plug-In . SVG Version: 6.00 Build 0)  -->
<svg version="1.1" id="Capa_1" xmlns="http://www.w3.org/2000/svg" xmlns:xlink="http://www.w3.org/1999/xlink" x="0px" y="0px"
	 viewBox="0 0 496 496" style="enable-background:new 0 0 496 496;" xml:space="preserve">
<g>
	<g>
		<g>
			<path d="M466.144,451.28L336,424.168V401.32h-16v24.488l-72,37.184l-72-37.184V401.32h-16v22.848L29.856,451.28
				C12.552,454.88,0,470.328,0,488v8h496v-8C496,470.328,483.448,454.88,466.144,451.28z M17.552,479.992
				c2.64-6.504,8.392-11.552,15.576-13.056l133.728-27.848l79.2,40.904H17.552z M249.952,480.008V480l79.2-40.904l133.728,27.848
				c7.176,1.504,12.928,6.544,15.568,13.064H249.952z"/>
			<path d="M448,85.536V53.704C448,24.096,423.904,0,394.296,0H101.704C72.096,0,48,24.096,48,53.704v31.832
				C19.904,96.84,0,124.32,0,156.408V295.24C0,335.36,32.64,368,72.76,368c16.84,0,33.272-5.896,46.264-16.608l100.32-82.648
				c12.872-10.616,20.304-26.272,20.376-42.936c0.096-19.528,0.176-63.544,0.232-92.968c0.04-20.536-15.36-37.656-35.816-39.816
				L184,90.904V80c0-4.416,3.584-8,8-8h8V56h-8c-13.232,0-24,10.768-24,24v9.216l-83.592-8.8c-2.648-0.28-5.32-0.424-8-0.424
				C72.176,80,68.048,80.432,64,81.104V64h48V48H64.576c2.776-18.072,18.288-32,37.128-32h292.592c18.832,0,34.352,13.928,37.128,32
				H384v16h48v17.104C427.952,80.432,423.824,80,419.592,80c-2.68,0-5.352,0.144-8,0.424L328,89.216V80c0-13.232-10.768-24-24-24h-8
				v16h8c4.416,0,8,3.584,8,8v10.904l-20.144,2.12c-20.456,2.16-35.848,19.272-35.816,39.816c0.056,29.424,0.144,73.44,0.232,92.96
				c0.072,16.672,7.504,32.328,20.384,42.944l100.312,82.648C389.968,362.104,406.4,368,423.24,368c40.12,0,72.76-32.64,72.76-72.76
				V156.408C496,124.312,476.096,96.832,448,85.536z M76.408,96c2.112,0,4.224,0.112,6.328,0.328l119.736,12.6
				c10.632,1.12,18.96,8.984,20.984,19.072H32v16h191.936c-0.056,28.456-0.128,64.56-0.216,81.736
				c-0.056,11.896-5.36,23.08-14.552,30.664l-100.32,82.648C98.712,347.4,85.896,352,72.76,352C41.464,352,16,326.536,16,295.24
				V156.408C16,123.104,43.104,96,76.408,96z M480,295.24c0,31.296-25.464,56.76-56.76,56.76c-13.144,0-25.952-4.6-36.096-12.952
				L286.84,256.4c-9.2-7.584-14.504-18.768-14.56-30.672c-0.08-17.168-0.16-53.264-0.216-81.728H464v-16H272.544
				c2.032-10.08,10.352-17.944,20.984-19.072l119.736-12.6c2.104-0.216,4.216-0.328,6.328-0.328C452.896,96,480,123.104,480,156.408
				V295.24z"/>
			<path d="M328,160c-22.056,0-40,17.944-40,40c0,22.056,17.944,40,40,40c22.056,0,40-17.944,40-40C368,177.944,350.056,160,328,160
				z M328,224c-13.232,0-24-10.768-24-24s10.768-24,24-24s24,10.768,24,24S341.232,224,328,224z"/>
			<path d="M424,160c-22.056,0-40,17.944-40,40c0,22.056,17.944,40,40,40c22.056,0,40-17.944,40-40C464,177.944,446.056,160,424,160
				z M424,224c-13.232,0-24-10.768-24-24s10.768-24,24-24s24,10.768,24,24S437.232,224,424,224z"/>
			<path d="M424,256c-22.056,0-40,17.944-40,40c0,22.056,17.944,40,40,40c22.056,0,40-17.944,40-40C464,273.944,446.056,256,424,256
				z M424,320c-13.232,0-24-10.768-24-24s10.768-24,24-24s24,10.768,24,24S437.232,320,424,320z"/>
			<path d="M220.448,408h55.112c10.04,0,19.632-3.736,27.024-10.512l48.96-44.872l-10.816-11.8l-48.96,44.88
				c-4.44,4.064-10.192,6.304-16.216,6.304H220.44c-6.024,0-11.776-2.24-16.208-6.312l-48.96-44.872l-10.816,11.8l48.96,44.864
				C200.816,404.264,210.408,408,220.448,408z"/>
			<path d="M168,240c22.056,0,40-17.944,40-40c0-22.056-17.944-40-40-40c-22.056,0-40,17.944-40,40C128,222.056,145.944,240,168,240
				z M168,176c13.232,0,24,10.768,24,24s-10.768,24-24,24s-24-10.768-24-24S154.768,176,168,176z"/>
			<path d="M72,240c22.056,0,40-17.944,40-40c0-22.056-17.944-40-40-40c-22.056,0-40,17.944-40,40C32,222.056,49.944,240,72,240z
				 M72,176c13.232,0,24,10.768,24,24s-10.768,24-24,24s-24-10.768-24-24S58.768,176,72,176z"/>
			<path d="M72,256c-22.056,0-40,17.944-40,40c0,22.056,17.944,40,40,40c22.056,0,40-17.944,40-40C112,273.944,94.056,256,72,256z
				 M72,320c-13.232,0-24-10.768-24-24s10.768-24,24-24s24,10.768,24,24S85.232,320,72,320z"/>
			<path d="M280,64c0-17.648-14.352-32-32-32s-32,14.352-32,32s14.352,32,32,32S280,81.648,280,64z M248,80c-8.824,0-16-7.176-16-16
				s7.176-16,16-16c8.824,0,16,7.176,16,16S256.824,80,248,80z"/>
			<rect x="128" y="48" width="16" height="16"/>
			<rect x="352" y="48" width="16" height="16"/>
		</g>
	</g>
</g>
<g>
</g>
<g>
</g>
<g>
</g>
<g>
</g>
<g>
</g>
<g>
</g>
<g>
</g>
<g>
</g>
<g>
</g>
<g>
</g>
<g>
</g>
<g>
</g>
<g>
</g>
<g>
</g>
<g>
</g>
</svg>
