<?xml version="1.0" encoding="iso-8859-1"?>
<!-- Generator: Adobe Illustrator 19.0.0, SVG Export Plug-In . SVG Version: 6.00 Build 0)  -->
<svg version="1.1" id="Capa_1" xmlns="http://www.w3.org/2000/svg" xmlns:xlink="http://www.w3.org/1999/xlink" x="0px" y="0px"
	 viewBox="0 0 496 496" style="enable-background:new 0 0 496 496;" xml:space="preserve">
<g>
	<g>
		<g>
			<path d="M304,56c-71.968,0-137.28,40.128-170.2,103.28C128.096,138.784,118.84,120,104,120C46.656,120,0,177.424,0,248
				s46.656,128,104,128c14.84,0,24.096-18.784,29.8-39.28C166.72,399.872,232.032,440,304,440c105.864,0,192-86.136,192-192
				S409.864,56,304,56z M16,248c0-51.752,27.76-95.296,65.304-108.088C69.552,164.2,64,207.08,64,248s5.552,83.8,17.304,108.088
				C43.76,343.296,16,299.752,16,248z M104,360c-7.176,0-24-38.104-24-112s16.824-112,24-112c1.824,0,10.232,6.952,16.936,37.912
				C95.8,189.904,80,217.736,80,248c0,30.264,15.8,58.096,40.936,74.096C114.232,353.056,105.824,360,104,360z M304,424
				c-70.32,0-133.776-41.744-161.656-106.352l-1.224-2.832l-2.816-1.272C112.608,301.864,96,276.144,96,248
				s16.608-53.864,42.304-65.528l2.816-1.28l1.224-2.84C170.216,113.744,233.68,72,304,72c97.048,0,176,78.952,176,176
				S401.048,424,304,424z"/>
			<path d="M176,168c-21.984,0-32,41.472-32,80s10.016,80,32,80s32-41.472,32-80S197.984,168,176,168z M176,312
				c-4.112,0-16-22.008-16-64c0-42,11.888-64,16-64s16,22,16,64C192,289.992,180.112,312,176,312z"/>
			<path d="M462.016,273.248c2.264-14.296,2.584-28.968,0.96-43.6c-8-71.816-65.768-130.784-137.36-140.224
				c-45.872-6.04-90.392,7.064-125.304,36.92c-5.056,4.32-8.056,10.616-8.232,17.272c-0.176,6.728,2.512,13.256,7.4,17.904
				C214.832,176.168,224,208.496,224,248c0,39.504-9.168,71.832-24.52,86.472c-4.864,4.648-7.552,11.16-7.368,17.864
				c0.192,6.728,3.248,13.104,8.4,17.48C229.384,394.44,266.136,408,304,408c72.672,0,136.312-49.032,154.76-119.232l-15.472-4.064
				C426.68,347.872,369.408,392,304,392c-34.064,0-67.136-12.2-93.12-34.368c-1.728-1.472-2.712-3.504-2.784-5.752
				c-0.064-2.216,0.8-4.288,2.424-5.832C237.128,320.68,240,269.032,240,248c0-21.032-2.872-72.68-29.488-98.056
				c-1.632-1.56-2.504-3.656-2.448-5.896c0.064-2.168,0.992-4.136,2.64-5.544c31.424-26.864,71.496-38.632,112.816-33.216
				c64.4,8.496,116.352,61.536,123.544,126.136c0.32,2.856,0.52,5.72,0.672,8.576H440h-8.616H416h-8c-7.512,0-14.688-3.592-19.2-9.6
				l-14.4-19.2l-12.8,9.6L376,240c0.504,0.672,1.08,1.272,1.616,1.912c-6.2,1.888-11.944,5.096-16.648,9.808l-14.624,14.624
				l11.312,11.312l14.624-14.624c4.536-4.536,10.56-7.032,16.976-7.032h10.096l-21.6,27l12.496,10l22.384-27.992
				c4.584-5.728,11.424-9.008,18.752-9.008H440h7.696c-0.272,4.952-0.712,9.88-1.48,14.752L462.016,273.248z"/>
		</g>
	</g>
</g>
<g>
</g>
<g>
</g>
<g>
</g>
<g>
</g>
<g>
</g>
<g>
</g>
<g>
</g>
<g>
</g>
<g>
</g>
<g>
</g>
<g>
</g>
<g>
</g>
<g>
</g>
<g>
</g>
<g>
</g>
</svg>
