<?xml version="1.0" encoding="iso-8859-1"?>
<!-- Generator: Adobe Illustrator 19.0.0, SVG Export Plug-In . SVG Version: 6.00 Build 0)  -->
<svg version="1.1" id="Capa_1" xmlns="http://www.w3.org/2000/svg" xmlns:xlink="http://www.w3.org/1999/xlink" x="0px" y="0px"
	 viewBox="0 0 496 496" style="enable-background:new 0 0 496 496;" xml:space="preserve">
<g>
	<g>
		<g>
			<path d="M248,208c17.648,0,32-14.352,32-32c0-8.04-3.08-15.312-8-20.944V64c0-13.232-10.768-24-24-24s-24,10.768-24,24v91.056
				c-4.92,5.624-8,12.896-8,20.944C216,193.648,230.352,208,248,208z M240,64c0-4.408,3.584-8,8-8s8,3.592,8,8v81.136
				c-2.576-0.672-5.224-1.136-8-1.136s-5.424,0.464-8,1.136V64z M248,160c8.824,0,16,7.176,16,16c0,8.824-7.176,16-16,16
				c-8.824,0-16-7.176-16-16C232,167.176,239.176,160,248,160z"/>
			<path d="M88,312c0,26.472,21.528,48,48,48s48-21.528,48-48s-21.528-48-48-48S88,285.528,88,312z M168,312
				c0,17.648-14.352,32-32,32s-32-14.352-32-32s14.352-32,32-32S168,294.352,168,312z"/>
			<path d="M472,408c-3.696,0-7.152,0.904-10.28,2.408L451.312,400l16-16l-24.184-24.184c1.72-2.984,3.312-6.048,4.712-9.224
				L488,342.56v-61.12l-40.16-8.032C432.944,239.648,399.208,216,360,216c-10.968,0-21.784,1.92-32,5.536V200h88v16h16v-16h16
				c13.232,0,24-10.768,24-24s-10.768-24-24-24H296v16h152c4.416,0,8,3.592,8,8s-3.584,8-8,8H296v16h16v28.896
				c-4.712,2.72-9.208,5.832-13.424,9.344l10.248,12.288c12.272-10.232,27.368-16.488,43.168-18.088V248h16v-15.592
				c8.784,0.872,17.112,3.232,24.832,6.72l-7.76,13.448l13.856,8l7.744-13.416c6.992,5.048,13.12,11.176,18.168,18.168
				l-13.416,7.744l8,13.856l13.448-7.76c3.496,7.72,5.848,16.056,6.72,24.832H424v16h15.592c-0.872,8.784-3.232,17.12-6.72,24.832
				l-13.448-7.76l-8,13.856l13.416,7.744c-5.048,6.992-11.176,13.12-18.168,18.168l-7.744-13.416l-13.856,8l7.76,13.448
				c-7.72,3.496-16.056,5.848-24.832,6.72V376h-16v15.592c-40.368-4.024-72-38.184-72-79.592c0-18.664,6.584-36.84,18.528-51.176
				l-12.28-10.248c-9.136,10.952-15.624,23.776-19.16,37.424H256v-64h-16v64h-11.088c-3.536-13.648-10.024-26.472-19.16-37.424
				l-12.28,10.248C209.416,275.16,216,293.336,216,312c0,41.416-31.632,75.568-72,79.592V376h-16v15.592
				c-8.784-0.872-17.112-3.232-24.832-6.72l7.76-13.448l-13.856-8l-7.744,13.416c-6.992-5.048-13.12-11.176-18.168-18.168
				l13.416-7.744l-8-13.856l-13.448,7.76c-3.488-7.72-5.848-16.048-6.72-24.832H72v-16H56.408c0.872-8.784,3.232-17.112,6.72-24.832
				l13.448,7.76l8-13.856l-13.416-7.744c5.048-6.992,11.176-13.12,18.168-18.168l7.744,13.416l13.856-8l-7.76-13.448
				c7.72-3.496,16.056-5.848,24.832-6.72V248h16v-15.56c15.8,1.6,30.896,7.856,43.168,18.088l10.248-12.288
				c-4.216-3.512-8.712-6.624-13.424-9.344V200h16v-16H48c-4.416,0-8-3.592-8-8s3.584-8,8-8h152v-16H48c-13.232,0-24,10.768-24,24
				s10.768,24,24,24h16v16h16v-16h88v21.536C157.784,217.92,146.968,216,136,216c-39.208,0-72.944,23.648-87.84,57.408L8,281.44
				v61.12l40.16,8.032c1.4,3.176,2.992,6.24,4.712,9.224L28.688,384l16,16L34.28,410.408C31.152,408.904,27.696,408,24,408
				c-13.232,0-24,10.768-24,24s10.768,24,24,24s24-10.768,24-24c0-3.696-0.904-7.152-2.408-10.28L56,411.312l16,16l26.816-26.816
				C110.256,405.328,122.824,408,136,408c44.64,0,82.144-30.664,92.84-72h38.32c10.696,41.336,48.208,72,92.84,72
				c13.176,0,25.744-2.672,37.184-7.504L424,427.312l16-16l10.408,10.408C448.904,424.848,448,428.304,448,432
				c0,13.232,10.768,24,24,24s24-10.768,24-24S485.232,408,472,408z M453.584,290.872L472,294.56v34.88l-18.416,3.688
				C455.12,326.32,456,319.264,456,312C456,304.736,455.12,297.68,453.584,290.872z M42.416,333.128L24,329.44v-34.88l18.416-3.688
				C40.88,297.68,40,304.736,40,312C40,319.264,40.88,326.32,42.416,333.128z M24,440c-4.416,0-8-3.592-8-8c0-4.408,3.584-8,8-8
				s8,3.592,8,8C32,436.408,28.416,440,24,440z M72,404.688L51.312,384l10.792-10.792c6.264,7.552,13.696,14.072,21.96,19.416
				L72,404.688z M231.592,320c0.224-2.648,0.408-5.296,0.408-8c0-2.68-0.128-5.344-0.352-8h32.704c-0.224,2.656-0.352,5.32-0.352,8
				c0,2.704,0.184,5.352,0.408,8H231.592z M424,404.688l-12.064-12.072c8.264-5.344,15.696-11.864,21.96-19.416l10.792,10.8
				L424,404.688z M472,440c-4.416,0-8-3.592-8-8c0-4.408,3.584-8,8-8c4.416,0,8,3.592,8,8C480,436.408,476.416,440,472,440z"/>
			<path d="M408,312c0-26.472-21.528-48-48-48s-48,21.528-48,48s21.528,48,48,48S408,338.472,408,312z M328,312
				c0-17.648,14.352-32,32-32s32,14.352,32,32s-14.352,32-32,32S328,329.648,328,312z"/>
		</g>
	</g>
</g>
<g>
</g>
<g>
</g>
<g>
</g>
<g>
</g>
<g>
</g>
<g>
</g>
<g>
</g>
<g>
</g>
<g>
</g>
<g>
</g>
<g>
</g>
<g>
</g>
<g>
</g>
<g>
</g>
<g>
</g>
</svg>
